<?xml version="1.0" encoding="utf-8"?>
<!-- Generator: Adobe Illustrator 23.0.3, SVG Export Plug-In . SVG Version: 6.00 Build 0)  -->
<svg version="1.1" id="Слой_1" xmlns="http://www.w3.org/2000/svg" xmlns:xlink="http://www.w3.org/1999/xlink" x="0px" y="0px"
	 viewBox="0 0 40 40" style="enable-background:new 0 0 40 40;" xml:space="preserve">
<style type="text/css">
	.st0{fill:#7F7F7F;}
</style>
<g>
	<path class="st0" d="M20,25.3c-0.6,0-1-0.4-1-1v-4.4c0-0.6,0.4-1,1-1c2.2,0,4-1.8,4-4s-1.8-4-4-4s-4,1.8-4,4c0,0.6-0.4,1-1,1
		s-1-0.4-1-1c0-3.3,2.7-6,6-6s6,2.7,6,6c0,3-2.2,5.4-5,5.9v3.5C21,24.9,20.6,25.3,20,25.3z"/>
</g>
<g>
	<path class="st0" d="M20,40C9,40,0,31,0,20S9,0,20,0c4.5,0,8.7,1.5,12.3,4.2c0.4,0.3,0.5,1,0.2,1.4s-1,0.5-1.4,0.2
		C27.9,3.3,24,2,20,2C10.1,2,2,10.1,2,20s8.1,18,18,18s18-8.1,18-18c0-3.2-0.9-6.4-2.5-9.2c-0.3-0.5-0.1-1.1,0.3-1.4
		c0.5-0.3,1.1-0.1,1.4,0.3C39,12.9,40,16.4,40,20C40,31,31,40,20,40z"/>
</g>
<g>
	<path class="st0" d="M20,32.5c-0.6,0-1-0.4-1-1v-2.7c0-0.6,0.4-1,1-1s1,0.4,1,1v2.7C21,32.1,20.6,32.5,20,32.5z"/>
</g>
</svg>
