<?xml version="1.0" encoding="utf-8"?>
<!-- Generator: Adobe Illustrator 23.0.3, SVG Export Plug-In . SVG Version: 6.00 Build 0)  -->
<svg version="1.1" id="Layer_1" xmlns="http://www.w3.org/2000/svg" xmlns:xlink="http://www.w3.org/1999/xlink" x="0px" y="0px"
	 viewBox="0 0 20 20" style="enable-background:new 0 0 20 20;" xml:space="preserve">
<style type="text/css">
	.st0{fill:#FFFFFF;}
</style>
<g>
	<title>Layer 1</title>
	<path id="svg_3" class="st0" d="M15.07,16h-3.82v-3.55H9.07V16H5.25v-5.73c0-0.15,0.12-0.27,0.27-0.27s0.27,0.12,0.27,0.27v5.18
		h2.73v-3.55h3.27v3.55h2.73v-4.91c0-0.15,0.12-0.27,0.27-0.27s0.27,0.12,0.27,0.27V16z"/>
	<path id="svg_5" class="st0" d="M16.44,10.27c-0.07,0-0.14-0.03-0.19-0.08l-6.09-5.82l-6.09,5.82c-0.11,0.1-0.28,0.1-0.39-0.01
		C3.58,10.08,3.59,9.9,3.7,9.8l6.46-6.18l6.46,6.18c0.11,0.1,0.11,0.28,0.01,0.39C16.58,10.24,16.51,10.27,16.44,10.27z"/>
	<path id="svg_7" class="st0" d="M14.26,7c-0.15,0-0.27-0.12-0.27-0.27V5.09h-1.64c-0.15,0-0.27-0.12-0.27-0.27
		c0-0.15,0.12-0.27,0.27-0.27h2.18v2.18C14.53,6.87,14.41,7,14.26,7z"/>
</g>
</svg>
