<?xml version="1.0" encoding="utf-8"?>
<!-- Generator: Adobe Illustrator 23.0.3, SVG Export Plug-In . SVG Version: 6.00 Build 0)  -->
<svg version="1.1" id="Layer_1" xmlns="http://www.w3.org/2000/svg" xmlns:xlink="http://www.w3.org/1999/xlink" x="0px" y="0px"
	 viewBox="0 0 512 512" style="enable-background:new 0 0 512 512;" xml:space="preserve">
<style type="text/css">
	.st0{fill:#7F7F7F;}
</style>
<path class="st0" d="M350.6,126.1l-60.3,39.7l-7.1-10.8c-20.5-31.2-62.7-39.9-93.9-19.4L55.2,224c-31.2,20.5-39.9,62.7-19.4,93.9
	L67.5,366c20.5,31.2,62.7,39.9,93.9,19.4l60.3-39.7l7.1,10.8c20.5,31.2,62.7,39.9,93.9,19.4l134.2-88.3
	c31.2-20.5,39.9-62.7,19.4-93.9l-31.7-48.1C424,114.3,381.9,105.6,350.6,126.1z M154.4,374.7c-25.4,16.7-59.5,9.6-76.2-15.7
	l-31.7-48.1c-16.7-25.4-9.6-59.5,15.7-76.2l134.2-88.3c25.4-16.7,59.5-9.6,76.2,15.7l31.7,48.1c16.7,25.4,9.6,59.5-15.7,76.2
	L154.4,374.7z M465.5,200.6c16.7,25.4,9.6,59.5-15.7,76.2l-134.2,88.3c-25.4,16.7-59.5,9.6-76.2-15.7l-7.1-10.8l22.5-14.8l2.4,3.6
	c11.9,18.2,36.4,23.2,54.6,11.3l64.5-42.5c2.9-1.9,3.8-5.9,1.8-8.8c-1.9-2.9-5.9-3.8-8.8-1.8l-64.5,42.5
	c-12.3,8.1-28.9,4.7-36.9-7.6l-2.4-3.6l30.1-19.8c29.8-19.6,39.1-58.9,21.9-89.6l51-33.6c12.3-8.1,28.9-4.7,36.9,7.6l22.2,33.8
	c8.1,12.3,4.7,28.9-7.6,36.9l-17.4,11.4c-2.9,1.9-3.8,5.9-1.8,8.8c1.9,2.9,5.9,3.8,8.8,1.8l17.4-11.4c18.2-11.9,23.2-36.4,11.3-54.6
	l-22.2-33.8c-11.9-18.2-36.4-23.2-54.6-11.3l-50.8,33.4l-13.3-20.2l60.3-39.7c25.3-16.7,59.5-9.6,76.2,15.7L465.5,200.6z"/>
<path class="st0" d="M277.1,217.8L254.8,184c-11.9-18.2-36.4-23.2-54.6-11.3L85,248.6c-16.5,10.9-22.4,32.5-13.8,50.2
	c1.5,3.2,5.4,4.5,8.5,2.9c3.2-1.6,4.5-5.4,2.9-8.5c-5.9-12-1.9-26.6,9.3-34l115.3-75.8c12.3-8.1,28.9-4.7,36.9,7.6l2.4,3.6
	l-30.1,19.8c-29.8,19.6-39.1,58.9-21.9,89.6l-51,33.6c-12.3,8.1-28.9,4.7-36.9-7.6l-2.4-3.6c-1.9-2.9-5.9-3.8-8.8-1.8
	c-2.9,1.9-3.8,5.9-1.8,8.8l2.4,3.6c11.9,18.2,36.4,23.2,54.6,11.3l115.3-75.8C284,260.5,289,236,277.1,217.8z M258.8,261.7
	l-17.5,11.5c-0.4-9.1,3.8-18.2,12-23.6l17.5-11.5C271.2,247.3,266.9,256.4,258.8,261.7z M266.4,224.8c0.1,0.2,0.3,0.5,0.4,0.7
	l-20.6,13.6c-14.2,9.3-20.4,26.3-16.7,41.9l-24.3,16c-13.3-24.8-5.7-56.2,18.3-71.9l30.1-19.8L266.4,224.8z"/>
</svg>
