<?xml version="1.0" encoding="utf-8"?>
<!-- Generator: Adobe Illustrator 23.0.3, SVG Export Plug-In . SVG Version: 6.00 Build 0)  -->
<svg version="1.1" id="Layer_1" xmlns="http://www.w3.org/2000/svg" xmlns:xlink="http://www.w3.org/1999/xlink" x="0px" y="0px"
	 viewBox="0 0 128 128" style="enable-background:new 0 0 128 128;" xml:space="preserve">
<style type="text/css">
	.st0{fill:#7F7F7F;}
</style>
<path class="st0" d="M89.14,65.09c0.5,4.88,4.64,8.7,9.64,8.7c5.35,0,9.7-4.35,9.7-9.7c0-5.35-4.35-9.7-9.7-9.7
	c-5.01,0-9.14,3.82-9.65,8.7H59.55V32.06c0-1.86,1.52-3.38,3.38-3.38h26.21c0.5,4.88,4.64,8.69,9.65,8.69c5.35,0,9.7-4.35,9.7-9.7
	s-4.35-9.7-9.7-9.7c-5.01,0-9.15,3.82-9.65,8.7H62.94c-2.97,0-5.38,2.41-5.38,5.38v31.03h-18.7c-0.5-4.88-4.64-8.7-9.65-8.7
	c-5.35,0-9.7,4.35-9.7,9.7s4.35,9.7,9.7,9.7c5.01,0,9.14-3.82,9.65-8.7h18.7v30.86c0,2.97,2.41,5.38,5.38,5.38h26.21
	c0.5,4.88,4.64,8.7,9.65,8.7c5.35,0,9.7-4.35,9.7-9.7c0-5.35-4.35-9.7-9.7-9.7c-5.01,0-9.14,3.82-9.65,8.7H62.94
	c-1.86,0-3.38-1.52-3.38-3.38V65.09H89.14z M98.79,56.39c4.24,0,7.7,3.45,7.7,7.7c0,4.24-3.45,7.7-7.7,7.7s-7.7-3.45-7.7-7.7
	C91.09,59.85,94.54,56.39,98.79,56.39z M98.79,19.98c4.24,0,7.7,3.45,7.7,7.7s-3.45,7.7-7.7,7.7c-3.9,0-7.13-2.92-7.62-6.69h0.15v-2
	h-0.15C91.66,22.9,94.88,19.98,98.79,19.98z M29.21,71.79c-4.24,0-7.7-3.45-7.7-7.7c0-4.24,3.45-7.7,7.7-7.7s7.7,3.45,7.7,7.7
	S33.46,71.79,29.21,71.79z M98.79,92.63c4.24,0,7.7,3.45,7.7,7.7s-3.45,7.69-7.7,7.69c-3.9,0-7.13-2.93-7.62-6.69h0.15v-2h-0.15
	C91.66,95.56,94.88,92.63,98.79,92.63z"/>
</svg>
