<?xml version="1.0" encoding="utf-8"?>
<!-- Generator: Adobe Illustrator 23.0.3, SVG Export Plug-In . SVG Version: 6.00 Build 0)  -->
<svg version="1.1" id="Layer_1" xmlns="http://www.w3.org/2000/svg" xmlns:xlink="http://www.w3.org/1999/xlink" x="0px" y="0px"
	 viewBox="0 0 512 512" style="enable-background:new 0 0 512 512;" xml:space="preserve">
<style type="text/css">
	.st0{fill:#61B53B;}
</style>
<path class="st0" d="M199.95,359.9h67.98v39.99h-67.98V359.9z M124.96,354.9c-13.8,0-24.99,11.19-24.99,24.99
	c0,13.8,11.19,24.99,24.99,24.99s24.99-11.19,24.99-24.99C149.96,366.09,138.77,354.9,124.96,354.9z M401.89,232.93H199.95v39.99
	h201.94V232.93z M124.96,227.94c-13.8,0-24.99,11.19-24.99,24.99s11.19,24.99,24.99,24.99s24.99-11.19,24.99-24.99
	S138.77,227.94,124.96,227.94z M401.89,112.97H199.95v39.99h201.94V112.97z M124.96,107.97c-13.8,0-24.99,11.19-24.99,24.99
	c0,13.8,11.19,25,24.99,25s24.99-11.19,24.99-25C149.96,119.16,138.77,107.97,124.96,107.97z M39.99,451.88V59.98
	c0-11.03,8.97-20,20-20h391.89c11.02,0,19.99,8.97,19.99,20v225.94h39.99V59.98C511.86,26.91,484.95,0,451.88,0H59.98
	C26.91,0,0,26.91,0,59.98v391.89c0,33.07,26.91,59.98,59.98,59.98h230.93v-39.99H59.98C48.96,471.87,39.99,462.9,39.99,451.88z
	 M483.72,512l-39.82-39.82c-13.47,8.05-29.21,12.68-46.01,12.68c-49.61,0-89.98-40.36-89.98-89.97c0-49.61,40.36-89.98,89.98-89.98
	c49.61,0,89.97,40.36,89.97,89.98c0,18.36-5.53,35.44-15,49.69L512,483.72L483.72,512z M397.89,444.88
	c27.56,0,49.98-22.42,49.98-49.98s-22.42-49.99-49.98-49.99s-49.99,22.43-49.99,49.99S370.33,444.88,397.89,444.88z"/>
</svg>
