<?xml version="1.0" encoding="utf-8"?>
<!-- Generator: Adobe Illustrator 23.0.3, SVG Export Plug-In . SVG Version: 6.00 Build 0)  -->
<svg version="1.1" id="Layer_1" xmlns="http://www.w3.org/2000/svg" xmlns:xlink="http://www.w3.org/1999/xlink" x="0px" y="0px"
	 viewBox="0 0 682 682" style="enable-background:new 0 0 682 682;" xml:space="preserve">
<style type="text/css">
	.st0{fill:#7F7F7F;}
</style>
<path class="st0" d="M601,356.7h-18.7V338H601V356.7z M569.7,356.7H551V338h18.7V356.7z"/>
<path class="st0" d="M566.6,238.6l-13.1-13.1l-13.2,13.2l36.1,36.1l36.1-36.1l-13.2-13.2l-13.9,13.9v-147H484.1v18.7h82.5V238.6z"/>
<path class="st0" d="M468.8,570l-13.2-13.2l-36.1,36.1l36.1,36.1l13.2-13.2l-13.5-13.5h29.6v-18.7h-29.6L468.8,570z"/>
<path class="st0" d="M350.1,431.8l76.8-76.8H446l-13.5,13.5l13.2,13.2l36.1-36.1l-36.1-36.1l-13.2,13.2l13.5,13.5h-19.1l-76.8-76.8
	v-77.5c37.1-4.3,66.6-33.8,70.9-70.9h38.1V92.5h-38.1C416.4,52.3,382.2,21,340.8,21c-44.6,0-80.8,36.3-80.8,80.8
	c0,41.4,31.3,75.6,71.5,80.3v77.5l-76.7,76.8h-19.1l13.5-13.5l-13.2-13.2l-36.1,36.1l36.1,36.1l13.2-13.2l-13.5-13.5h19.1l76.7,76.8
	v93.5h-58.1v135h135v-52.1h-18.7v33.4H292v-97.6h97.6v39.2h18.7v-58h-58.2V431.8z M278.7,101.8c0-34.2,27.9-62.1,62.1-62.1
	c34.3,0,62.1,27.9,62.1,62.1s-27.9,62.1-62.1,62.1C306.5,163.9,278.7,136.1,278.7,101.8z M340.8,276.7l69,69l-69,69l-69-69
	L340.8,276.7z"/>
<path class="st0" d="M633.9,286H518.1l-24.2,24.2v71l24.2,24.2h48.5v178.1h-56.8v18.7h75.6V405.4h48.5l24.2-24.2v-71L633.9,286z
	 M639.4,373.4l-13.2,13.2H525.8l-13.2-13.2V318l13.2-13.2h100.3l13.2,13.2V373.4z"/>
<path class="st0" d="M212.8,570l13.5,13.5H115v-76.9H96.2v95.6h130.1l-13.5,13.5l13.2,13.2l36.1-36.1l-36.1-36.1L212.8,570z"/>
<path class="st0" d="M96.2,481.6H115v-76.2h48.5l24.2-24.2v-71L163.5,286H47.7l-24.2,24.2v71l24.2,24.2h48.5V481.6z M42.2,373.4V318
	l13.2-13.2h100.3L169,318v55.4l-13.2,13.2H55.5L42.2,373.4z"/>
</svg>
